<svg width="125" height="151" viewBox="0 0 125 151" fill="none" xmlns="http://www.w3.org/2000/svg">
<path fill-rule="evenodd" clip-rule="evenodd" d="M124.737 1.11837C124.808 0.523371 124.343 0 123.744 0H1.00014C0.399625 0 -0.0654635 0.525548 0.00756371 1.12161L16.7559 137.824C17.6775 145.347 24.0657 151 31.6446 151H93.552C101.15 151 107.547 145.32 108.447 137.775L124.737 1.11837ZM105.886 15.1025C105.947 14.5128 105.484 14 104.892 14H19.1115C18.5175 14 18.0545 14.5146 18.117 15.1053L30.9292 136.105C30.9831 136.614 31.4122 137 31.9237 137H92.4257C92.9383 137 93.3679 136.612 93.4204 136.102L105.886 15.1025Z" fill="#E85A4F"/>
<line x1="28.9963" y1="131" x2="96.0038" y2="131" stroke="#E85A4F" stroke-width="13"/>
</svg>
