<svg width="125" height="151" viewBox="0 0 125 151" fill="none" xmlns="http://www.w3.org/2000/svg">
<path fill-rule="evenodd" clip-rule="evenodd" d="M123.744 0C124.343 0 124.808 0.523376 124.737 1.11838L108.447 137.776C107.547 145.32 101.15 151 93.552 151H31.6445C24.0657 151 17.6776 145.347 16.7559 137.824L0.00756992 1.12161C-0.0654892 0.525543 0.399599 0 1.00012 0H52L53.5 14H19.1115C18.5175 14 18.0545 14.5146 18.117 15.1053L30.9293 136.105C30.9831 136.614 31.4122 137 31.9237 137H92.4257C92.9383 137 93.3679 136.612 93.4205 136.102L105.886 15.1025C105.947 14.5128 105.484 14 104.892 14H70.5L68.8998 0H123.744Z" fill="#E85A4F"/>
<line x1="20" y1="48.5" x2="105" y2="48.5" stroke="#E85A4F" stroke-width="13"/>
</svg>
