<svg width="312" height="621" viewBox="0 0 312 621" fill="none" xmlns="http://www.w3.org/2000/svg">
<g clip-path="url(#clip0_209_136)">
<circle cx="311.5" cy="310.5" r="300" stroke="#45A29E" stroke-width="21"/>
<path d="M268.023 294.944C282.303 299.744 282.64 319.819 268.531 325.096L80.5399 395.412C72.6391 398.367 63.7566 394.686 60.5572 386.881C36.716 328.719 38.3255 292.782 58.0594 240.196C61.0245 232.295 69.7838 228.304 77.7831 230.993L268.023 294.944Z" fill="#E85A4F"/>
<path d="M296.475 353.475C301.515 339.279 321.592 339.279 326.631 353.475L393.776 542.622C396.598 550.571 392.768 559.391 384.91 562.458C326.356 585.318 290.45 583.104 238.204 562.489C230.354 559.391 226.511 550.566 229.334 542.613L296.475 353.475Z" fill="#E85A4F"/>
<path d="M272.956 326.857C286.637 320.551 300.657 334.921 294.015 348.442L205.517 528.59C201.798 536.161 192.811 539.578 185.127 536.096C127.875 510.148 104.385 482.902 82.6564 431.109C79.3915 423.327 83.0246 414.413 90.6886 410.88L272.956 326.857Z" fill="#E85A4F"/>
<path d="M326.631 268.312C321.592 282.508 301.515 282.508 296.475 268.312L229.331 79.1651C226.509 71.2158 230.339 62.3965 238.197 59.3288C296.751 36.469 332.657 38.6827 384.903 59.2982C392.753 62.3958 396.596 71.2209 393.773 79.1739L326.631 268.312Z" fill="#E85A4F"/>
<path d="M295.262 269.471C302.318 282.781 288.748 297.577 274.879 291.695L90.0991 213.329C82.3332 210.035 78.4227 201.251 81.4732 193.386C104.205 134.782 130.106 109.818 180.613 85.2486C188.202 81.557 197.304 84.69 201.257 92.1463L295.262 269.471Z" fill="#E85A4F"/>
</g>
<defs>
<clipPath id="clip0_209_136">
<rect width="312" height="621" fill="white"/>
</clipPath>
</defs>
</svg>
