<svg width="190" height="60" viewBox="0 0 190 60" fill="none" xmlns="http://www.w3.org/2000/svg">
<path d="M27.9099 18.0883L28.2744 21.151H37.5039L36.7383 27.2766H25.8938L25.1815 21.151H25.19L24.8255 18.0883L24.8212 18.051L23.9558 10.6099L23.7569 8.8999H11.6736V11.9627H21.0297L21.742 18.0883H13.0017L16.878 49.096C16.9716 49.8362 17.3318 50.517 17.8911 51.0108C18.4505 51.5047 19.1706 51.7777 19.9168 51.7789H34.0582C34.8044 51.7778 35.5247 51.5048 36.0841 51.011C36.6435 50.5171 37.0038 49.8363 37.0974 49.096L40.9733 18.0883H27.9099ZM16.471 21.151H22.0981L22.8104 27.2766H17.2367L16.471 21.151ZM34.0596 48.7161H19.9167L17.6196 30.3394H23.1666L24.502 41.8248H27.5854L26.2498 30.3394H36.3558L34.0596 48.7161Z" fill="#E85A4F"/>
<path d="M63.3999 40.8733V18.4963H69.497C71.7048 18.4963 73.5825 18.8367 75.13 19.5176C76.6981 20.1985 77.9568 21.0961 78.9059 22.2103C79.8551 23.3245 80.5463 24.5625 80.9796 25.9243C81.4335 27.2655 81.6605 28.6067 81.6605 29.9479C81.6605 31.6398 81.3613 33.1564 80.7629 34.4975C80.1852 35.8387 79.3805 36.9839 78.3488 37.933C77.3171 38.8822 76.1307 39.6146 74.7895 40.1305C73.469 40.6257 72.0659 40.8733 70.5803 40.8733H63.3999ZM66.402 37.9949H69.9923C71.2303 37.9949 72.3651 37.8092 73.3968 37.4378C74.4491 37.0664 75.357 36.5299 76.1204 35.8284C76.9045 35.1269 77.5132 34.2706 77.9465 33.2595C78.3798 32.2279 78.5964 31.0621 78.5964 29.7622C78.5964 28.3797 78.3694 27.1727 77.9155 26.141C77.4616 25.0887 76.8426 24.2118 76.0585 23.5102C75.2744 22.8087 74.3872 22.2825 73.3968 21.9318C72.4064 21.5603 71.3644 21.3746 70.2708 21.3746H66.402V37.9949ZM85.4652 28.0599L85.7437 31.7739L85.589 31.2787C85.9191 30.4946 86.3937 29.8344 87.0127 29.2979C87.6523 28.7408 88.3126 28.3178 88.9935 28.0289C89.6951 27.7194 90.3037 27.5647 90.8196 27.5647L90.6648 30.4121C89.6951 30.3502 88.8388 30.5359 88.096 30.9692C87.3738 31.4025 86.7961 31.9803 86.3627 32.7024C85.9501 33.4246 85.7437 34.1984 85.7437 35.0237V40.8733H82.8963V28.0599H85.4652ZM91.4379 28.0599H94.3162V40.8733H91.4379V28.0599ZM91.2212 23.4174C91.2212 22.9634 91.3966 22.5817 91.7474 22.2722C92.1188 21.9627 92.5211 21.8079 92.9544 21.8079C93.3877 21.8079 93.7694 21.9627 94.0996 22.2722C94.4503 22.5817 94.6257 22.9634 94.6257 23.4174C94.6257 23.8919 94.4503 24.284 94.0996 24.5935C93.7694 24.8823 93.3877 25.0268 92.9544 25.0268C92.5211 25.0268 92.1188 24.872 91.7474 24.5625C91.3966 24.253 91.2212 23.8713 91.2212 23.4174ZM98.7702 28.0599L99.0178 31.1859L98.894 30.6907C99.3066 29.7415 99.9772 28.9884 100.906 28.4313C101.834 27.8536 102.907 27.5647 104.125 27.5647C105.342 27.5647 106.332 27.9258 107.096 28.648C107.88 29.3495 108.282 30.2677 108.303 31.4025V40.8733H105.394V32.4239C105.373 31.7223 105.167 31.1549 104.775 30.7216C104.403 30.2677 103.815 30.0407 103.01 30.0407C102.268 30.0407 101.597 30.247 100.999 30.6597C100.4 31.0724 99.9256 31.6398 99.5749 32.362C99.2447 33.0842 99.0797 33.9198 99.0797 34.8689V40.8733H96.2013V28.0599H98.7702ZM110.214 40.8733V16.9178H113.092V40.8733H110.214ZM116.187 32.362L122.067 40.8733H118.694L114.268 33.9714L116.187 32.362ZM112.194 36.7879L111.916 34.0333L119.684 27.7813L121.448 29.2979L112.194 36.7879ZM126.123 41.1209C125.216 41.1209 124.328 40.9661 123.462 40.6566C122.616 40.3265 121.914 39.8416 121.357 39.202L122.564 37.5307C123.101 38.0465 123.647 38.4385 124.204 38.7068C124.782 38.9544 125.35 39.0782 125.907 39.0782C126.319 39.0782 126.701 39.0266 127.052 38.9234C127.403 38.8203 127.681 38.6552 127.888 38.4282C128.115 38.1806 128.228 37.8505 128.228 37.4378C128.228 36.9839 128.073 36.6228 127.764 36.3546C127.475 36.0863 127.093 35.8697 126.619 35.7046C126.165 35.5395 125.68 35.3848 125.164 35.2403C124.112 34.8896 123.307 34.4047 122.75 33.7857C122.193 33.1667 121.914 32.4136 121.914 31.5263C121.914 30.8454 122.079 30.2161 122.409 29.6384C122.76 29.04 123.266 28.5551 123.926 28.1837C124.607 27.8123 125.442 27.6266 126.433 27.6266C127.32 27.6266 128.115 27.7401 128.816 27.967C129.518 28.1734 130.178 28.5241 130.797 29.0194L129.652 30.8145C129.28 30.4224 128.837 30.1336 128.321 29.9479C127.805 29.7622 127.341 29.659 126.928 29.6384C126.577 29.6177 126.237 29.6693 125.907 29.7931C125.597 29.9169 125.339 30.0923 125.133 30.3193C124.927 30.5462 124.823 30.8145 124.823 31.124C124.823 31.5573 124.968 31.908 125.257 32.1763C125.546 32.4445 125.917 32.6612 126.371 32.8262C126.846 32.9707 127.31 33.1254 127.764 33.2905C128.403 33.4762 128.971 33.7238 129.466 34.0333C129.961 34.3428 130.353 34.7245 130.642 35.1784C130.952 35.6324 131.106 36.1998 131.106 36.8807C131.106 37.6442 130.921 38.356 130.549 39.0163C130.199 39.6559 129.652 40.1718 128.909 40.5638C128.187 40.9352 127.258 41.1209 126.123 41.1209ZM157.155 18.4963V40.8733H154.184V31.0621H142.454V40.8733H139.452V18.4963H142.454V28.2146H154.184V18.4963H157.155ZM163.849 41.3685C162.693 41.3685 161.734 41.0177 160.97 40.3162C160.228 39.594 159.836 38.6655 159.794 37.5307V28.0599H162.673V36.5093C162.714 37.2108 162.91 37.7783 163.261 38.2116C163.632 38.6449 164.21 38.8718 164.994 38.8925C165.716 38.8925 166.356 38.6861 166.913 38.2735C167.491 37.8402 167.955 37.2624 168.306 36.5403C168.656 35.7975 168.832 34.9618 168.832 34.0333V28.0599H171.71V40.8733H169.079L168.832 37.7164L168.987 38.2735C168.739 38.8718 168.357 39.4083 167.841 39.8829C167.346 40.3368 166.758 40.6979 166.077 40.9661C165.396 41.2344 164.654 41.3685 163.849 41.3685ZM181.394 41.1828C180.218 41.1828 179.176 40.9249 178.268 40.409C177.381 39.8932 176.669 39.2432 176.133 38.4592L176.473 37.5616V40.8733H173.595V16.9178H176.442V31.0002L176.35 29.9169C176.865 29.2154 177.598 28.648 178.547 28.2146C179.517 27.7607 180.59 27.5337 181.766 27.5337C182.921 27.5337 183.974 27.8123 184.923 28.3694C185.872 28.9265 186.625 29.7106 187.182 30.7216C187.76 31.712 188.049 32.8984 188.049 34.2809C188.049 35.7252 187.739 36.9632 187.12 37.9949C186.522 39.0266 185.717 39.821 184.706 40.3781C183.695 40.9146 182.591 41.1828 181.394 41.1828ZM180.806 38.7377C181.632 38.7377 182.375 38.5417 183.035 38.1497C183.695 37.7576 184.211 37.2315 184.582 36.5712C184.954 35.8903 185.139 35.1165 185.139 34.2499C185.139 33.4246 184.943 32.6818 184.551 32.0215C184.18 31.3406 183.664 30.8041 183.004 30.4121C182.364 30.0201 181.632 29.8241 180.806 29.8241C180.105 29.8241 179.455 29.9582 178.857 30.2264C178.258 30.4946 177.753 30.866 177.34 31.3406C176.927 31.7946 176.638 32.331 176.473 32.95V35.5189C176.638 36.1379 176.917 36.695 177.309 37.1902C177.701 37.6648 178.196 38.0465 178.795 38.3354C179.393 38.6036 180.064 38.7377 180.806 38.7377Z" fill="black"/>
<line x1="2.14937" y1="14.0046" x2="2.14937" y2="3.68785" stroke="black" stroke-width="2.57919" stroke-linecap="round"/>
<line x1="2.14933" y1="2.82808" x2="52.8733" y2="2.82808" stroke="black" stroke-width="2.57919" stroke-linecap="square"/>
<line x1="52.8732" y1="14.0046" x2="52.8732" y2="3.68785" stroke="black" stroke-width="2.57919" stroke-linecap="round"/>
<line x1="52.8733" y1="46.6741" x2="52.8733" y2="56.9909" stroke="black" stroke-width="2.57919" stroke-linecap="round"/>
<line x1="52.8732" y1="57.8506" x2="2.14927" y2="57.8506" stroke="black" stroke-width="2.57919" stroke-linecap="square"/>
<line x1="2.14933" y1="46.6741" x2="2.14933" y2="56.9909" stroke="black" stroke-width="2.57919" stroke-linecap="round"/>
</svg>
